<?xml version="1.0" encoding="UTF-8"?>
<svg width="16px" height="13px" viewBox="0 0 16 13" version="1.1" xmlns="http://www.w3.org/2000/svg" xmlns:xlink="http://www.w3.org/1999/xlink">
    <!-- Generator: Sketch 52.6 (67491) - http://www.bohemiancoding.com/sketch -->
    <title></title>
    <desc>Created with Sketch.</desc>
    <g id="Design-2019" stroke="none" stroke-width="1" fill="none" fill-rule="evenodd">
        <g id="Mobile" transform="translate(-37.000000, -739.000000)" fill="#FF4B2D">
            <g id="Group-2" transform="translate(0.000000, 681.000000)">
                <g id="Group" transform="translate(30.000000, 40.000000)">
                    <path d="M22.7846182,21.2566848 C22.7846182,21.5078012 22.6841717,21.7589176 22.5033679,21.9397213 L13.8649647,30.5781245 C13.6841609,30.7589283 13.4330446,30.8593748 13.1819282,30.8593748 C12.9308118,30.8593748 12.6796955,30.7589283 12.4988917,30.5781245 L7.49665357,25.5758864 C7.31584978,25.3950826 7.21540323,25.1439662 7.21540323,24.8928499 C7.21540323,24.6417335 7.31584978,24.3906171 7.49665357,24.2098133 L8.86272663,22.8437403 C9.04353041,22.6629365 9.29464678,22.5624899 9.54576316,22.5624899 C9.79687953,22.5624899 10.0479959,22.6629365 10.2287997,22.8437403 L13.1819282,25.8069135 L19.7712218,19.2075752 C19.9520256,19.0267714 20.2031419,18.9263249 20.4542583,18.9263249 C20.7053747,18.9263249 20.956491,19.0267714 21.1372948,19.2075752 L22.5033679,20.5736483 C22.6841717,20.7544521 22.7846182,21.0055684 22.7846182,21.2566848 Z" id=""></path>
                </g>
            </g>
        </g>
    </g>
</svg>