<?xml version="1.0" encoding="UTF-8"?>
<svg width="58px" height="24px" viewBox="0 0 58 24" version="1.1" xmlns="http://www.w3.org/2000/svg" xmlns:xlink="http://www.w3.org/1999/xlink">
    <!-- Generator: Sketch 52.4 (67378) - http://www.bohemiancoding.com/sketch -->
    <title>vsbl-logo</title>
    <desc>Created with Sketch.</desc>
    <defs>
        <linearGradient x1="-1.9939045%" y1="96.3462171%" x2="100%" y2="0%" id="linearGradient-1">
            <stop stop-color="#FF0054" offset="0%"></stop>
            <stop stop-color="#FF0953" offset="8.3%"></stop>
            <stop stop-color="#FF2350" offset="22.2%"></stop>
            <stop stop-color="#FF4C4B" offset="39.7%"></stop>
            <stop stop-color="#FF7646" offset="55.2%"></stop>
            <stop stop-color="#FFBC00" offset="100%"></stop>
        </linearGradient>
    </defs>
    <g id="Design" stroke="none" stroke-width="1" fill="none" fill-rule="evenodd">
        <g id="Start" transform="translate(-1262.000000, -48.000000)" fill="url(#linearGradient-1)" fill-rule="nonzero">
            <g id="vsbl-logo" transform="translate(1262.000000, 48.000000)">
                <path d="M29.5750538,16.8366412 C29.7287217,17.3984733 29.8055556,18.0205016 29.8055556,18.7629226 C29.8055556,20.4885496 29.1908843,21.7928026 27.9423332,22.6756816 C26.6937821,23.5585606 24.9458106,24 22.6792101,24 C21.2001573,24 19.9516062,23.859542 18.9719738,23.5986914 C17.9923414,23.3378408 17.3008362,23.117121 16.9166667,22.9365322 L17.7042143,18.923446 C18.5109703,19.2645583 19.3369349,19.525409 20.182108,19.7059978 C21.027281,19.8865867 21.872454,19.9869138 22.6984186,19.9869138 C23.5628002,19.9869138 24.1774714,19.9066522 24.5424326,19.7260633 C24.9073936,19.5454744 25.0802699,19.2043621 25.0802699,18.7027263 C25.0802699,18.3014177 24.8497682,17.9603054 24.3887647,17.6593239 C23.9277612,17.3583424 23.2170475,17.0172301 22.2566236,16.6359869 C21.507493,16.3550709 20.8351962,16.0540894 20.2397334,15.7330426 C19.6442706,15.432061 19.1256417,15.0508179 18.7030551,14.6294438 C18.2804686,14.2080698 17.9539245,13.6863686 17.7234227,13.0844057 C17.492921,12.4824427 17.3776702,11.7600873 17.3776702,10.9173391 C17.3776702,9.27197384 17.9539245,7.98778624 19.1256417,7.0246456 C20.2973588,6.08157032 21.8916625,5.6 23.9277612,5.6 C24.9458106,5.6 25.925443,5.70032712 26.8474499,5.880916 C27.7886653,6.06150488 28.5185875,6.28222464 29.0756334,6.5029444 L28.2496688,10.3555071 C27.692623,10.1548528 27.0971601,9.97426392 26.4440719,9.81374048 C25.7909836,9.65321704 25.0802699,9.57295528 24.2735139,9.57295528 C22.794461,9.57295528 22.0453304,10.0143948 22.0453304,10.8772083 C22.0453304,11.0778626 22.0837473,11.2584514 22.1413727,11.3989095 C22.1989981,11.559433 22.3334575,11.699891 22.5255423,11.840349 C22.7176271,11.980807 22.9673373,12.1413304 23.3130899,12.3018538 C23.7225214,12.5050986 24.138988,12.6925033 24.561641,12.8636859 C25.5988988,13.2649946 26.4632803,13.6663032 27.1355771,14.0475463 C27.8078738,14.4287895 28.3457112,14.870229 28.7490893,15.3116685 C29.1332588,15.7731734 29.421386,16.2748092 29.5750538,16.8366412 Z M10.8459132,8.15885848 C10.7275942,8.55838288 10.6092751,8.97788344 10.4909561,9.39738408 C10.1951585,10.396195 9.89936081,11.4149822 9.56412347,12.4337694 C9.22888613,13.4525565 8.93308855,14.4513674 8.59785121,15.4302022 C8.26261386,16.4090369 7.96681628,17.2879905 7.67101862,18.067063 C7.35550119,17.2680142 7.05970353,16.3890606 6.74418603,15.4302022 C6.42866861,14.4513674 6.1131511,13.4525565 5.7976336,12.4337694 C5.48211618,11.4149822 5.16659868,10.396195 4.87080101,9.39738408 L4.81164149,9.21759808 L0,10.0765755 C0.709914281,12.2539834 1.43954848,14.3115339 2.18890252,16.2692034 C3.35237318,19.2256837 4.49612399,21.8026159 5.60043521,24 L9.64300283,24 C10.747314,21.8026159 11.8910649,19.2057075 13.0348158,16.2492271 C14.1194071,13.4725327 15.1448388,10.4561237 16.1111111,7.2 L10.8459132,8.15885848 Z M47.8360768,11.2503337 C48.1742112,12.3607245 48.3333333,13.5900858 48.3333333,14.9384175 C48.3333333,16.3264061 48.1344307,17.5557674 47.7167353,18.6859866 C47.31893,19.7963775 46.7222222,20.7481411 45.946502,21.5412774 C45.1707819,22.3344138 44.2359396,22.929266 43.122085,23.365491 C42.0082304,23.8017159 40.7352537,24 39.303155,24 C38.7064472,24 38.0898491,23.9801716 37.4334705,23.9206864 C36.7770919,23.8612011 36.1406035,23.8017159 35.5240055,23.7025738 C34.9074074,23.6232602 34.2908093,23.5042898 33.733882,23.3853194 C33.1570645,23.2663489 32.659808,23.1473785 32.2222222,23.0085796 L32.2222222,4.05262152 L37.1351166,3.2 L37.1351166,6.70962824 C37.6920439,6.47168736 38.2489712,6.27340328 38.845679,6.1544328 C39.4423869,6.01563392 40.0788752,5.95614872 40.755144,5.95614872 C41.9883402,5.95614872 43.0624142,6.1742612 44.0171468,6.59065776 C44.951989,7.02688272 45.7475995,7.62173496 46.3840878,8.41487128 C47.0205762,9.1881792 47.5178326,10.1399428 47.8360768,11.2503337 Z M43.5,15.0439024 C43.5,11.9414634 42.2774205,10.4 39.8529832,10.4 C39.3349411,10.4 38.7961772,10.4585366 38.2988568,10.5951219 C37.7808145,10.7317073 37.3663809,10.8878049 37.0555556,11.0829268 L37.0555556,19.8439024 C37.3042158,19.8829268 37.6357627,19.9219512 38.0087531,19.9609756 C38.4024651,20 38.8168989,20 39.272776,20 C40.6611289,20 41.717935,19.5512195 42.4224723,18.6341463 C43.1477314,17.7365854 43.5,16.5268293 43.5,15.0439024 Z M55.8798954,19.0927152 C55.7095301,18.8543046 55.5770234,18.5562914 55.520235,18.1986755 C55.4634465,17.8410596 55.4255878,17.4437086 55.4255878,17.0066225 L55.4255878,0 L50.75,0.85430464 L50.75,18 C50.75,18.9139073 50.8446471,19.7483444 51.0150133,20.4834437 C51.1853786,21.218543 51.5261093,21.8344371 52.0182771,22.3509934 C52.5104442,22.8675497 53.1729766,23.2649006 54.0248041,23.5430463 C54.8766315,23.8211921 55.9745433,23.9801325 57.3374676,24 L58,19.9470198 C57.4321148,19.9072848 56.9778064,19.807947 56.6560055,19.6490066 C56.315274,19.5298014 56.0691905,19.3311258 55.8798954,19.0927152 Z" id="Shape"></path>
            </g>
        </g>
    </g>
</svg>